<?xml version="1.0" encoding="UTF-8"?>
<svg xmlns="http://www.w3.org/2000/svg" xmlns:xlink="http://www.w3.org/1999/xlink" width="28px" height="28px" viewBox="0 0 28 28" version="1.1">
<g id="surface1">
<path style=" stroke:none;fill-rule:evenodd;fill:rgb(78.431373%,69.411765%,49.411765%);fill-opacity:1;" d="M 13.980469 22.152344 C 18.53125 22.152344 22.148438 18.539062 22.148438 13.984375 C 22.148438 9.4375 18.53125 5.820312 13.980469 5.820312 C 9.433594 5.820312 5.816406 9.4375 5.816406 13.984375 C 5.816406 18.539062 9.433594 22.152344 13.980469 22.152344 "/>
<path style=" stroke:none;fill-rule:nonzero;fill:rgb(43.529412%,34.509804%,14.509804%);fill-opacity:1;" d="M 10.480469 12.820312 L 17.480469 12.820312 C 18.183594 12.820312 18.648438 13.289062 18.648438 13.984375 C 18.648438 14.6875 18.183594 15.152344 17.480469 15.152344 L 10.480469 15.152344 C 9.78125 15.152344 9.316406 14.6875 9.316406 13.984375 C 9.316406 13.402344 9.898438 12.820312 10.480469 12.820312 Z M 10.480469 12.820312 "/>
</g>
</svg>
