<?xml version="1.0" encoding="UTF-8"?>
<svg xmlns="http://www.w3.org/2000/svg" xmlns:xlink="http://www.w3.org/1999/xlink" width="28px" height="28px" viewBox="0 0 28 28" version="1.1">
<g id="surface1">
<path style=" stroke:none;fill-rule:evenodd;fill:rgb(76.862745%,36.078431%,47.45098%);fill-opacity:1;" d="M 13.949219 22.144531 C 18.503906 22.144531 22.117188 18.523438 22.117188 13.976562 C 22.117188 9.425781 18.503906 5.8125 13.949219 5.8125 C 9.402344 5.8125 5.78125 9.425781 5.78125 13.976562 C 5.78125 18.523438 9.515625 22.144531 13.949219 22.144531 "/>
<path style=" stroke:none;fill-rule:nonzero;fill:rgb(52.156863%,11.372549%,22.745098%);fill-opacity:1;" d="M 10.683594 10.710938 C 10.21875 11.175781 10.21875 11.875 10.683594 12.339844 L 12.320312 13.976562 L 10.683594 15.609375 C 10.21875 16.078125 10.21875 16.773438 10.683594 17.246094 C 11.152344 17.710938 11.847656 17.710938 12.320312 17.246094 L 13.949219 15.609375 L 15.585938 17.246094 C 16.050781 17.710938 16.753906 17.710938 17.21875 17.246094 C 17.683594 16.773438 17.683594 16.078125 17.21875 15.609375 L 15.699219 13.976562 L 17.335938 12.339844 C 17.800781 11.875 17.800781 11.175781 17.335938 10.710938 C 16.867188 10.246094 16.167969 10.246094 15.699219 10.710938 L 14.070312 12.339844 L 12.433594 10.710938 C 11.847656 10.246094 11.152344 10.246094 10.683594 10.710938 Z M 10.683594 10.710938 "/>
</g>
</svg>
