<?xml version="1.0" encoding="utf-8"?>
<!-- Generator: Adobe Illustrator 27.7.0, SVG Export Plug-In . SVG Version: 6.00 Build 0)  -->
<svg version="1.1"
	 id="svg4428" xmlns:inkscape="http://www.inkscape.org/namespaces/inkscape" xmlns:sodipodi="http://sodipodi.sourceforge.net/DTD/sodipodi-0.dtd" xmlns:svg="http://www.w3.org/2000/svg" xmlns:dc="http://purl.org/dc/elements/1.1/" xmlns:rdf="http://www.w3.org/1999/02/22-rdf-syntax-ns#" xmlns:cc="http://creativecommons.org/ns#"
	 xmlns="http://www.w3.org/2000/svg" xmlns:xlink="http://www.w3.org/1999/xlink" x="0px" y="0px" viewBox="0 0 24 24"
	 style="enable-background:new 0 0 24 24;" xml:space="preserve">
<style type="text/css">
	.st0{fill-opacity:0;}
	.st1{enable-background:new    ;}
	.st2{fill-rule:evenodd;clip-rule:evenodd;fill:#BABABA;}
	.st3{fill-rule:evenodd;clip-rule:evenodd;fill:#CECECE;}
	.st4{fill:#A6E3A1;fill-opacity:0;}
	.st5{fill-rule:evenodd;clip-rule:evenodd;fill:#A6E3A1;}
	.st6{fill-rule:evenodd;clip-rule:evenodd;fill:#20A932;}
	.st7{opacity:0.5;enable-background:new    ;}
	.st8{fill-rule:evenodd;clip-rule:evenodd;fill:#28D33F;}
</style>
<sodipodi:namedview  bordercolor="#666666" borderopacity="1.0" id="base" inkscape:current-layer="layer1" inkscape:cx="35.514532" inkscape:cy="30.84609" inkscape:document-units="px" inkscape:pageopacity="1" inkscape:pageshadow="2" inkscape:showpageshadow="false" inkscape:snap-bbox="true" inkscape:window-height="715" inkscape:window-maximized="1" inkscape:window-width="1366" inkscape:window-x="0" inkscape:window-y="27" inkscape:zoom="2.0351563" pagecolor="#eff0f1" showborder="true" showgrid="false">
	
		<inkscape:grid  empspacing="5" enabled="true" id="grid4436" originx="0" originy="0" snapvisiblegridlinesonly="true" spacingx="1.0666667" spacingy="1.0666667" type="xygrid" visible="true">
		</inkscape:grid>
</sodipodi:namedview>
<g id="_x34_" transform="translate(86.4,-3.2)" inkscape:label="#g3842">
</g>
<g id="inactive-center" transform="translate(-269.20729,1319.5894)" inkscape:label="#inactive-center">
	<polygon id="rect1559-2" class="st0" points="273,-1367.2 289,-1367.2 289,-1367.2 289,-1351.2 289,-1351.2 273,-1351.2 
		273,-1351.2 273,-1367.2 	"/>
	<g id="titlebutton-maximize-backdrop-1-9" transform="translate(274,-267.63782)" inkscape:label="#g865" class="st1">
		<g id="g6-5-1" transform="translate(-4.9999997,-1033.3622)">
			<path id="path2-3-2" inkscape:connector-curvature="0" class="st2" d="M12-51.2c3.9,0,7-3.1,7-7s-3.1-7-7-7c-3.9,0-7,3.1-7,7
				S8.1-51.2,12-51.2"/>
			<path id="path4-5" inkscape:connector-curvature="0" class="st3" d="M12-51.7c3.6,0,6.5-2.9,6.5-6.5s-2.9-6.5-6.5-6.5
				c-3.6,0-6.5,2.9-6.5,6.5S8.4-51.7,12-51.7"/>
		</g>
	</g>
</g>
<g id="active-center" transform="translate(-269.20729,1319.5894)" inkscape:label="#active-center">
	<polygon id="rect1567-7" class="st4" points="273.2,-1315.6 289.2,-1315.6 289.2,-1315.6 289.2,-1299.6 289.2,-1299.6 
		273.2,-1299.6 273.2,-1299.6 273.2,-1315.6 	"/>
	<g id="titlebutton-maximize-1-0" transform="translate(274,-241.63782)" inkscape:label="#g891" class="st1">
		<g id="g6-1-9" transform="translate(-4.9999997,-1033.3622)">
			<path id="path2-2-3" inkscape:connector-curvature="0" class="st5" d="M12.2-25.6c3.9,0,7-3.1,7-7s-3.1-7-7-7c-3.9,0-7,3.1-7,7
				S8.3-25.6,12.2-25.6"/>
			<path id="path4-70" inkscape:connector-curvature="0" class="st5" d="M12.2-26.1c3.6,0,6.5-2.9,6.5-6.5s-2.9-6.5-6.5-6.5
				c-3.6,0-6.5,2.9-6.5,6.5S8.6-26.1,12.2-26.1"/>
		</g>
	</g>
</g>
<g id="pressed-center" transform="translate(-269.20729,1319.5894)" inkscape:label="#pressed-center">
	<polygon id="rect1584-1" class="st0" points="273,-1289.2 289,-1289.2 289,-1289.2 289,-1273.2 289,-1273.2 273,-1273.2 
		273,-1273.2 273,-1289.2 	"/>
	<g id="titlebutton-maximize-active-1-0" transform="translate(274,-189.63782)" inkscape:label="#g903" class="st1">
		<g id="g6-9-6" transform="translate(-4.9999997,-1033.3622)">
			<path id="path2-36-3" inkscape:connector-curvature="0" class="st6" d="M12-51.2c3.9,0,7-3.1,7-7s-3.1-7-7-7c-3.9,0-7,3.1-7,7
				S8.1-51.2,12-51.2"/>
			<path id="path4-0-2" inkscape:connector-curvature="0" class="st7" d="M10.4-61.2l4.6,4.6v-3.6c0-0.4-0.6-1-1-1H10.4z M9-59.7
				v3.6c0,0.4,0.6,1,1,1h3.6L9-59.7z"/>
		</g>
	</g>
</g>
<g id="hover-center" transform="translate(-269.20729,1319.5894)" inkscape:label="#hover-center">
	<polygon id="rect1575-0" class="st0" points="315.5,-1313.6 331.5,-1313.6 331.5,-1313.6 331.5,-1297.6 331.5,-1297.6 
		315.5,-1297.6 315.5,-1297.6 315.5,-1313.6 	"/>
	<g id="titlebutton-maximize-hover-1-6" transform="translate(274,-215.63782)" inkscape:label="#g929" class="st1">
		<g id="g8-8-1" transform="translate(-4.9999997,-1033.3622)">
			<path id="path2-7-5" inkscape:connector-curvature="0" class="st6" d="M54.5-49.6c3.9,0,7-3.1,7-7s-3.1-7-7-7c-3.9,0-7,3.1-7,7
				S50.7-49.6,54.5-49.6"/>
			<path id="path4-92" inkscape:connector-curvature="0" class="st8" d="M54.5-50.1c3.6,0,6.5-2.9,6.5-6.5s-2.9-6.5-6.5-6.5
				c-3.6,0-6.5,2.9-6.5,6.5S50.9-50.1,54.5-50.1"/>
			<path id="path6-0-54" inkscape:connector-curvature="0" class="st7" d="M52.9-59.6l4.6,4.6v-3.6c0-0.4-0.6-1-1-1H52.9z
				 M51.5-58.2v3.6c0,0.4,0.6,1,1,1h3.6L51.5-58.2z"/>
		</g>
	</g>
</g>
<g id="deactivated-center" transform="translate(-229.89827,1319.5894)" inkscape:label="#deactivated-center">
	<polygon id="rect963" class="st0" points="273,-1367.2 289,-1367.2 289,-1367.2 289,-1351.2 289,-1351.2 273,-1351.2 273,-1351.2 
		273,-1367.2 	"/>
	<g id="g971" transform="translate(274,-267.63782)" inkscape:label="#g865" class="st1">
		<g id="g969" transform="translate(-4.9999997,-1033.3622)">
			<path id="path965" inkscape:connector-curvature="0" class="st2" d="M12-51.2c3.9,0,7-3.1,7-7s-3.1-7-7-7c-3.9,0-7,3.1-7,7
				S8.1-51.2,12-51.2"/>
			<path id="path967" inkscape:connector-curvature="0" class="st3" d="M12-51.7c3.6,0,6.5-2.9,6.5-6.5s-2.9-6.5-6.5-6.5
				c-3.6,0-6.5,2.9-6.5,6.5S8.4-51.7,12-51.7"/>
		</g>
	</g>
</g>
</svg>
