<?xml version="1.0" encoding="utf-8"?>
<!-- Generator: Adobe Illustrator 27.7.0, SVG Export Plug-In . SVG Version: 6.00 Build 0)  -->
<svg version="1.1"
	 id="svg4428" xmlns:inkscape="http://www.inkscape.org/namespaces/inkscape" xmlns:sodipodi="http://sodipodi.sourceforge.net/DTD/sodipodi-0.dtd" xmlns:svg="http://www.w3.org/2000/svg" xmlns:dc="http://purl.org/dc/elements/1.1/" xmlns:rdf="http://www.w3.org/1999/02/22-rdf-syntax-ns#" xmlns:cc="http://creativecommons.org/ns#"
	 xmlns="http://www.w3.org/2000/svg" xmlns:xlink="http://www.w3.org/1999/xlink" x="0px" y="0px" viewBox="0 0 24 24"
	 style="enable-background:new 0 0 24 24;" xml:space="preserve">
<style type="text/css">
	.st0{fill-opacity:0;}
	.st1{enable-background:new    ;}
	.st2{fill-rule:evenodd;clip-rule:evenodd;fill:#BABABA;}
	.st3{fill-rule:evenodd;clip-rule:evenodd;fill:#CECECE;}
	.st4{fill:#F9E2AF;fill-opacity:0;}
	.st5{fill-rule:evenodd;clip-rule:evenodd;fill:#F9E2AF;}
	.st6{fill-rule:evenodd;clip-rule:evenodd;fill:#CAA124;}
	.st7{opacity:0.5;enable-background:new    ;}
	.st8{fill-rule:evenodd;clip-rule:evenodd;fill:#FDC92D;}
</style>
<sodipodi:namedview  bordercolor="#666666" borderopacity="1.0" id="base" inkscape:current-layer="layer1" inkscape:cx="98.183628" inkscape:cy="48.522401" inkscape:document-units="px" inkscape:pageopacity="1" inkscape:pageshadow="2" inkscape:showpageshadow="false" inkscape:snap-bbox="true" inkscape:window-height="715" inkscape:window-maximized="1" inkscape:window-width="1366" inkscape:window-x="0" inkscape:window-y="27" inkscape:zoom="1.4390728" pagecolor="#eff0f1" showborder="true" showgrid="false">
	
		<inkscape:grid  empspacing="5" enabled="true" id="grid4436" originx="0" originy="0" snapvisiblegridlinesonly="true" spacingx="1.0666667" spacingy="1.0666667" type="xygrid" visible="true">
		</inkscape:grid>
</sodipodi:namedview>
<g id="_x34_" transform="translate(86.4,-3.2)" inkscape:label="#g3842">
</g>
<g id="inactive-center" transform="translate(-248.71593,1319.5894)" inkscape:label="#inactive-center">
	<polygon id="rect1557-60" class="st0" points="253,-1367.2 269,-1367.2 269,-1367.2 269,-1351.2 269,-1351.2 253,-1351.2 
		253,-1351.2 253,-1367.2 	"/>
	<g id="titlebutton-minimize-backdrop-1-6" transform="translate(254,-267.63782)" inkscape:label="#g915" class="st1">
		<g id="g6-6-2" transform="translate(-4.9999997,-1033.3622)">
			<path id="path2-26-6" inkscape:connector-curvature="0" class="st2" d="M12-51.2c3.9,0,7-3.1,7-7s-3.1-7-7-7c-3.9,0-7,3.1-7,7
				S8.1-51.2,12-51.2"/>
			<path id="path4-1" inkscape:connector-curvature="0" class="st3" d="M12-51.7c3.6,0,6.5-2.9,6.5-6.5s-2.9-6.5-6.5-6.5
				c-3.6,0-6.5,2.9-6.5,6.5S8.4-51.7,12-51.7"/>
		</g>
	</g>
</g>
<g id="active-center" transform="translate(-248.71593,1319.5894)" inkscape:label="#active-center">
	<polygon id="rect1565-18" class="st4" points="252.7,-1315.6 268.7,-1315.6 268.7,-1315.6 268.7,-1299.6 268.7,-1299.6 
		252.7,-1299.6 252.7,-1299.6 252.7,-1315.6 	"/>
	<g id="titlebutton-minimize-1-7" transform="translate(254,-241.63782)" inkscape:label="#g941" class="st1">
		<g id="g6-2-9" transform="translate(-4.9999997,-1033.3622)">
			<path id="path2-37-2" inkscape:connector-curvature="0" class="st5" d="M11.7-25.6c3.9,0,7-3.1,7-7s-3.1-7-7-7c-3.9,0-7,3.1-7,7
				S7.8-25.6,11.7-25.6"/>
			<path id="path4-59" inkscape:connector-curvature="0" class="st5" d="M11.7-26.1c3.6,0,6.5-2.9,6.5-6.5s-2.9-6.5-6.5-6.5
				c-3.6,0-6.5,2.9-6.5,6.5S8.1-26.1,11.7-26.1"/>
		</g>
	</g>
</g>
<g id="pressed-center" transform="translate(-248.71593,1319.5894)" inkscape:label="#pressed-center">
	<polygon id="rect1582-7" class="st0" points="253,-1289.2 269,-1289.2 269,-1289.2 269,-1273.2 269,-1273.2 253,-1273.2 
		253,-1273.2 253,-1289.2 	"/>
	<g id="titlebutton-minimize-active-1-6" transform="translate(254,-189.63782)" inkscape:label="#g953" class="st1">
		<g id="g6-22-5" transform="translate(-4.9999997,-1033.3622)">
			<path id="path2-8-6" inkscape:connector-curvature="0" class="st6" d="M12-51.2c3.9,0,7-3.1,7-7s-3.1-7-7-7c-3.9,0-7,3.1-7,7
				S8.1-51.2,12-51.2"/>
			<path id="rect4-9" class="st7" d="M9-59.2h6c0.6,0,1,0.4,1,1l0,0c0,0.6-0.4,1-1,1H9c-0.6,0-1-0.4-1-1l0,0C8-58.7,8.4-59.2,9-59.2
				z"/>
		</g>
	</g>
</g>
<g id="hover-center" transform="translate(-248.71593,1319.5894)" inkscape:label="#hover-center">
	<polygon id="rect1573-3" class="st0" points="282.2,-1318.9 298.2,-1318.9 298.2,-1318.9 298.2,-1302.9 298.2,-1302.9 
		282.2,-1302.9 282.2,-1302.9 282.2,-1318.9 	"/>
	<g id="titlebutton-minimize-hover-1-7" transform="translate(254,-215.63782)" inkscape:label="#g979" class="st1">
		<g id="g8-9-45" transform="translate(-4.9999997,-1033.3622)">
			<path id="path2-31-2" inkscape:connector-curvature="0" class="st6" d="M41.2-54.9c3.9,0,7-3.1,7-7s-3.1-7-7-7c-3.9,0-7,3.1-7,7
				S37.4-54.9,41.2-54.9"/>
			<path id="path4-94" inkscape:connector-curvature="0" class="st8" d="M41.2-55.4c3.6,0,6.5-2.9,6.5-6.5s-2.9-6.5-6.5-6.5
				c-3.6,0-6.5,2.9-6.5,6.5S37.6-55.4,41.2-55.4"/>
			<path id="rect6-5" class="st7" d="M38.2-62.9h6c0.6,0,1,0.4,1,1l0,0c0,0.6-0.4,1-1,1h-6c-0.6,0-1-0.4-1-1l0,0
				C37.2-62.4,37.7-62.9,38.2-62.9z"/>
		</g>
	</g>
</g>
<g id="deactivated-center" transform="translate(-215.70856,1319.5894)" inkscape:label="#deactivated-center">
	<polygon id="rect963" class="st0" points="253,-1367.2 269,-1367.2 269,-1367.2 269,-1351.2 269,-1351.2 253,-1351.2 253,-1351.2 
		253,-1367.2 	"/>
	<g id="g971" transform="translate(254,-267.63782)" inkscape:label="#g915" class="st1">
		<g id="g969" transform="translate(-4.9999997,-1033.3622)">
			<path id="path965" inkscape:connector-curvature="0" class="st2" d="M12-51.2c3.9,0,7-3.1,7-7s-3.1-7-7-7c-3.9,0-7,3.1-7,7
				S8.1-51.2,12-51.2"/>
			<path id="path967" inkscape:connector-curvature="0" class="st3" d="M12-51.7c3.6,0,6.5-2.9,6.5-6.5s-2.9-6.5-6.5-6.5
				c-3.6,0-6.5,2.9-6.5,6.5S8.4-51.7,12-51.7"/>
		</g>
	</g>
</g>
</svg>
